<svg version="1.1" id="Layer_1" xmlns="http://www.w3.org/2000/svg" xmlns:xlink="http://www.w3.org/1999/xlink" x="0px" y="0px"
	 width="100%" viewBox="0 0 814 790" enable-background="new 0 0 814 790" xml:space="preserve">
<path fill="none" opacity="1.000000" stroke="#000000" stroke-linecap="round" stroke-linejoin="round" stroke-width="7.000000"
	d="
M393.000000,715.000000 
	C392.798187,725.287354 388.853729,733.821899 380.995941,740.495178 
	C375.669800,745.018433 369.459412,747.433411 362.499847,747.466919 
	C342.833649,747.561462 323.163879,747.701355 303.500977,747.428833 
	C290.496063,747.248596 277.889923,737.374512 274.473358,722.506104 
	C271.728760,710.562195 276.064819,700.994385 283.994476,692.494812 
	C285.765442,690.596619 288.334106,689.500793 289.236542,686.592041 
	C300.234283,690.992004 310.681793,695.813232 321.544769,699.363037 
	C336.692139,704.312866 352.126617,708.236511 367.967194,710.710083 
	C376.301056,712.011475 384.889404,713.615540 393.019897,713.873840 
	C401.682831,714.148987 410.676666,714.021973 419.507416,713.710938 
	C447.557159,712.723083 474.554596,707.065247 501.023834,698.070129 
	C510.833923,694.736389 520.678711,691.026184 529.754272,686.506592 
	C538.897583,681.953125 547.891785,676.379395 556.527039,670.539978 
	C579.534607,654.981934 600.691406,637.412354 618.024841,615.519653 
	C621.894897,610.631653 621.921814,611.072266 628.522034,613.438599 
	C648.163452,620.480530 668.140076,626.107544 688.986511,628.612244 
	C706.674500,630.737366 724.349121,630.948364 741.983459,629.320557 
	C751.400879,628.451294 760.909058,627.311523 770.024170,624.067871 
	C785.087097,618.707703 792.936401,600.133057 784.455872,584.523987 
	C771.457397,560.599243 758.173340,536.829651 744.998413,513.000854 
	C724.170837,475.331055 703.343323,437.661102 682.477661,400.012360 
	C681.073120,397.478149 680.443298,394.940765 680.445801,391.999939 
	C680.513977,313.666656 680.633667,235.332947 680.413940,157.000244 
	C680.352539,135.121170 673.226440,115.679947 658.588135,98.923027 
	C644.694397,83.018456 627.294250,73.426170 606.965088,69.689896 
	C587.624817,66.135368 569.016663,69.816284 550.945190,77.877151 
	C520.086121,91.641998 488.425385,103.470757 455.952637,112.835785 
	C441.516235,116.999199 426.809082,120.429932 411.501465,120.618538 
	C396.018585,120.809319 381.189117,117.401421 366.533203,113.379051 
	C338.743042,105.751953 311.890564,95.283905 285.010010,84.973915 
	C272.843292,80.307388 261.279175,74.142708 248.515533,70.938133 
	C236.725494,67.978012 225.028000,67.901749 212.980423,69.335503 
	C197.526611,71.174629 184.173996,77.590866 172.081741,86.609604 
	C155.770950,98.774658 145.605682,115.328781 140.498596,134.999634 
	C138.667725,142.051559 138.041336,149.268112 138.035843,156.500031 
	C137.977921,232.666656 137.870407,308.833862 138.175323,384.999298 
	C138.210709,393.836426 136.283264,401.477905 132.050720,409.028442 
	C111.438545,445.798859 90.992210,482.662323 70.503067,519.501709 
	C59.188396,539.845459 48.208675,560.371277 36.616402,580.566833 
	C30.800121,590.699707 28.804836,601.449890 35.410225,612.553406 
	C39.994923,620.260315 46.603947,624.515991 55.002872,626.487732 
	C76.269600,631.480347 97.957367,631.320251 119.487427,630.247681 
	C137.324432,629.359070 154.873810,625.516235 172.035080,620.111389 
	C180.236542,617.528320 188.155182,614.121094 196.622086,611.704773 
	C210.637070,628.069946 225.630219,643.235901 242.472351,656.535034 
	C254.432190,665.978943 267.362518,673.886353 280.514557,681.474792 
	C283.443542,683.164673 286.844574,684.151672 288.500000,687.500000 
"/>
<path fill="none" opacity="1.000000" stroke="#000000" stroke-linecap="round" stroke-linejoin="round" stroke-width="8.000000"
	d="
M264.500000,181.500000 
	C263.666687,179.500000 262.799988,177.513123 262.006470,175.497452 
	C259.920044,170.197754 256.857574,166.067657 252.217178,162.236923 
	C245.375885,156.589355 240.102219,149.070007 233.941544,142.555283 
	C231.932526,140.430817 230.422455,137.433640 226.999496,137.003967 
	C222.415207,136.428467 220.745651,139.643860 218.970383,142.984253 
	C213.389206,153.485855 210.713470,164.628922 211.553391,176.496216 
	C211.880966,181.124390 210.561996,184.126465 206.603806,187.136490 
	C187.227859,201.871078 175.084152,221.571289 169.084381,245.021591 
	C167.340393,251.838028 166.345657,258.828735 166.421707,266.000824 
	C166.642578,286.831818 166.482498,307.666687 166.504395,328.500000 
	C166.532104,354.862671 175.911957,377.567780 193.510071,396.990875 
	C207.163544,412.060242 223.699203,422.446930 243.496170,427.514984 
	C256.334534,430.801636 269.207520,431.727997 282.515503,430.700958 
	C298.774445,429.446198 313.637299,424.550293 327.452545,416.419403 
	C343.152161,407.179443 355.717896,394.636475 364.534546,378.518890 
	C365.677063,376.430237 367.081268,374.518433 367.000000,372.000000 
"/>
<path fill="none" opacity="1.000000" stroke="#000000" stroke-linecap="round" stroke-linejoin="round" stroke-width="8.000000"
	d="
M561.500000,166.000000 
	C567.514832,163.821640 570.449585,158.304428 574.496277,153.996506 
	C579.178955,149.011536 583.711670,143.878708 588.538879,139.038757 
	C592.327332,135.240234 595.142212,136.188416 598.059631,140.963547 
	C604.001160,150.688370 606.195435,161.438843 607.492615,172.500870 
	C607.550415,172.994080 607.648621,173.558594 607.478027,173.991348 
	C604.154724,182.421600 609.977051,186.086197 615.424377,190.591461 
	C633.292786,205.369888 644.024780,224.735504 649.349060,247.036041 
	C651.043518,254.133240 651.695435,261.541870 651.587097,269.001251 
	C651.320862,287.330750 651.385681,305.667511 651.524109,323.999817 
	C651.800171,360.553375 637.328918,389.757477 607.976562,411.468262 
	C591.094299,423.955383 572.006714,430.189728 551.002625,431.062439 
	C533.758423,431.778961 517.255310,429.081940 501.501160,421.997437 
	C484.837433,414.503937 471.414062,403.094818 460.431793,388.551514 
	C456.557831,383.421387 453.629486,377.748352 450.000000,372.500000 
"/>
<path fill="none" opacity="1.000000" stroke="#000000" stroke-linecap="round" stroke-linejoin="round" stroke-width="8.000000"
	d="
M554.500000,180.500000 
	C555.751404,177.628113 557.016541,174.766464 558.370178,171.937866 
	C559.807800,168.933594 561.137451,165.936859 559.770386,161.908249 
	C558.502502,158.171829 559.413147,153.664505 559.517151,149.500427 
	C559.772888,139.260101 556.935364,129.859833 552.000793,120.999550 
	C548.130493,114.050201 544.707092,113.366707 539.532166,119.029396 
	C521.781677,138.452820 504.053436,157.899048 486.544159,177.539368 
	C476.665405,188.620468 467.193817,200.120743 453.975128,207.455154 
	C440.799011,214.765945 426.912720,219.402649 411.502991,219.671661 
	C399.108856,219.888016 387.041565,218.791840 375.540619,214.393799 
	C363.552368,209.809402 353.603394,202.104294 344.955505,192.540237 
	C326.601349,172.241684 307.940674,152.220551 289.544159,131.959900 
	C285.259918,127.241508 281.117401,122.398651 276.489716,118.010841 
	C272.533997,114.260147 269.392548,114.393799 267.088654,119.043930 
	C263.347137,126.595779 260.269409,134.375092 259.353546,142.984421 
	C258.763550,148.530914 258.239105,153.957108 258.950897,159.506302 
	C259.209930,161.526062 258.286530,163.392075 257.000000,165.000000 
"/>
<path fill="none" opacity="1.000000" stroke="#000000" stroke-linecap="round" stroke-linejoin="round" stroke-width="8.000000"
	d="
M274.500000,247.000000 
	C278.333344,248.041367 281.935974,248.004013 286.047546,247.264206 
	C294.881866,245.674622 302.867737,249.032166 309.467865,255.035339 
	C317.214294,262.081177 320.436523,271.190399 320.487244,281.500061 
	C320.543030,292.833130 320.714813,304.171814 320.442657,315.498627 
	C320.139771,328.104797 315.262451,338.403778 303.996277,344.993622 
	C294.438324,350.584229 284.108490,351.129303 274.615448,346.274231 
	C263.561829,340.621033 256.450958,331.327759 256.495483,318.000000 
	C256.520508,310.500061 256.600769,302.998016 256.453918,295.500916 
	C256.388763,292.174408 257.298645,290.647705 260.994385,290.411804 
	C274.264618,289.564758 285.263794,277.296692 284.713379,264.490814 
	C284.476685,258.984528 282.653564,254.136948 281.500000,249.000000 
"/>
<path fill="none" opacity="1.000000" stroke="#000000" stroke-linecap="round" stroke-linejoin="round" stroke-width="7.000000"
	d="
M512.500000,248.500000 
	C516.694702,249.557831 520.518982,247.893616 524.545410,247.317032 
	C535.733154,245.714874 545.823181,248.772522 553.558228,257.950928 
	C559.254883,264.710480 561.682922,272.270691 561.547546,281.000732 
	C561.358887,293.164459 561.419067,305.334015 561.520630,317.499817 
	C561.644775,332.365265 550.361084,346.664734 534.485779,348.899078 
	C516.116211,351.484528 503.228912,340.531097 498.767120,325.918427 
	C495.652710,315.718506 497.640656,304.670105 497.577179,293.999542 
	C497.562622,291.554779 499.616058,290.617584 501.978943,289.927826 
	C511.948059,287.017700 518.875977,280.865295 521.493103,270.498260 
	C522.584473,266.175293 522.621399,261.812836 521.470947,257.507751 
	C520.791931,254.966843 519.187256,252.715347 519.000000,250.000000 
"/>
<path fill="none" opacity="1.000000" stroke="#000000" stroke-linecap="round" stroke-linejoin="round" stroke-width="8.000000"
	d="
M530.500000,687.500000 
	C533.354309,691.899170 537.653442,694.970703 540.637207,699.407776 
	C551.736938,715.913818 542.835571,736.619324 528.518738,744.036133 
	C524.388794,746.175720 520.111938,747.471863 515.499939,747.481873 
	C495.833405,747.524475 476.164917,747.659546 456.500610,747.444092 
	C443.314575,747.299683 432.687653,737.962158 428.406708,726.534973 
	C426.983826,722.736877 426.794037,718.841858 426.000000,715.000000 
"/>
<path fill="none" opacity="1.000000" stroke="#000000" stroke-linecap="round" stroke-linejoin="round" stroke-width="8.000000"
	d="
M457.000000,368.500000 
	C458.472992,363.168488 455.363617,359.023743 452.904266,355.059387 
	C444.426208,341.393372 432.301147,333.511322 416.024872,331.315552 
	C404.640625,329.779694 394.403198,332.264374 384.539398,337.080688 
	C374.663666,341.902802 367.569855,349.825745 362.529205,359.515198 
	C359.033051,366.235748 361.908691,370.798004 369.495728,371.543518 
	C381.422241,372.715515 393.283569,374.473267 404.983307,377.075104 
	C409.152710,378.002289 413.051483,377.094299 416.989960,376.439667 
	C423.693054,375.325500 430.324036,373.783325 437.007324,372.539398 
	C438.457123,372.269562 440.060364,372.230377 441.488770,372.550140 
	C445.928589,373.544067 449.777557,372.510803 453.552887,370.082214 
	C455.041290,369.124756 456.850281,367.593231 459.000000,369.000000 
"/>
<path fill="none" opacity="1.000000" stroke="#000000" stroke-linecap="round" stroke-linejoin="round" stroke-width="8.000000"
	d="
M375.000000,373.500000 
	C372.513611,387.124084 381.583008,402.934509 393.988800,409.022797 
	C415.573700,419.615845 438.845093,406.285492 443.653320,385.535522 
	C444.593781,381.476898 443.719055,377.402374 445.000000,373.500000 
"/>
<path fill="none" opacity="1.000000" stroke="#000000" stroke-linecap="round" stroke-linejoin="round" stroke-width="7.000000"
	d="
M384.000000,529.000000 
	C384.159790,535.281799 379.928192,539.294800 375.922699,542.914429 
	C357.970642,559.137268 331.158264,556.907532 316.516724,536.987732 
	C314.906128,534.796509 313.850159,532.327698 314.000000,529.500000 
"/>
<path fill="none" opacity="1.000000" stroke="#000000" stroke-linecap="round" stroke-linejoin="round" stroke-width="8.000000"
	d="
M371.500000,586.750000 
	C388.492706,582.018311 405.845001,585.542053 423.002686,584.546204 
	C428.151978,584.247314 433.334259,584.439453 438.499756,584.516907 
	C443.731201,584.595276 445.596008,587.552490 442.962799,591.977844 
	C435.114380,605.168152 418.352081,614.534241 400.488617,610.551086 
	C389.634094,608.130737 381.594513,602.098083 375.425812,593.050598 
	C374.172852,591.212952 374.017334,589.464966 374.000000,587.500000 
"/>
<path fill="none" opacity="1.000000" stroke="#000000" stroke-linecap="round" stroke-linejoin="round" stroke-width="8.000000"
	d="
M387.500000,528.500000 
	C367.950409,524.379700 348.160522,527.365540 328.498108,526.545227 
	C322.751709,526.305542 316.882812,525.855286 311.500000,528.750000 
"/>
<path fill="none" opacity="1.000000" stroke="#000000" stroke-linecap="round" stroke-linejoin="round" stroke-width="8.000000"
	d="
M437.500000,526.500000 
	C433.252533,527.861938 433.148041,530.852905 435.042389,533.974243 
	C448.210724,555.671204 475.683167,559.896973 494.456238,544.446838 
	C497.717926,541.762451 500.884094,538.811707 503.003723,535.002075 
	C504.132385,532.973572 505.586639,530.594238 504.353363,528.590271 
	C503.134888,526.610291 500.457886,526.416931 497.999298,526.463196 
	C492.001434,526.576050 486.000000,526.500000 480.000000,526.500000 
	C466.000000,526.500000 452.000000,526.500000 438.000000,526.500000 
"/>
<path fill="none" opacity="1.000000" stroke="#000000" stroke-linecap="round" stroke-linejoin="round" stroke-width="8.000000"
	d="
M540.000000,203.500000 
	C531.561829,204.856857 523.035400,205.448074 514.969666,208.929764 
	C489.641602,219.863022 474.429993,238.574127 470.548309,266.006836 
	C468.035156,283.767853 469.912048,301.667847 469.552307,319.501068 
	C469.141388,339.870544 476.358948,357.691711 490.643799,371.854980 
	C507.327484,388.396606 528.151062,395.541565 551.473083,391.830963 
	C581.899597,386.990082 601.712219,369.231720 610.505127,339.501526 
	C612.630249,332.316071 613.498169,324.969116 613.499390,317.500000 
	C613.501465,304.833344 613.533020,292.166534 613.491272,279.500031 
	C613.442566,264.717407 610.552368,250.576324 602.443054,238.036819 
	C589.676270,218.295334 571.892578,206.362122 548.001465,204.481750 
	C545.490784,204.284134 543.000000,203.833328 540.500000,203.500000 
"/>
<path fill="none" opacity="1.000000" stroke="#000000" stroke-linecap="round" stroke-linejoin="round" stroke-width="8.000000"
	d="
M276.000000,203.500000 
	C267.561676,204.641769 259.037262,205.198486 250.985336,208.463852 
	C239.684647,213.046692 229.822662,219.497162 221.972916,228.977585 
	C212.776306,240.084702 207.128769,252.499832 205.345718,266.981018 
	C203.904266,278.687958 204.721741,290.336823 204.609924,302.001068 
	C204.518951,311.491791 204.059479,320.980591 205.360092,330.519073 
	C207.144348,343.604401 211.954773,355.266449 220.067596,365.446136 
	C230.268448,378.245789 243.314590,386.910004 259.497742,390.510101 
	C280.426544,395.165955 299.824677,392.184814 317.522156,379.531006 
	C332.100220,369.107697 341.781952,355.510559 346.068268,338.016724 
	C347.366791,332.716919 348.293610,327.354736 348.394806,321.998016 
	C348.690613,306.336945 348.834351,290.657532 348.407806,275.002502 
	C347.963562,258.696991 342.774353,243.957748 332.558563,230.953995 
	C322.359497,217.971573 308.876312,210.216141 293.456024,205.648407 
	C288.064941,204.051483 282.166656,204.166672 276.500000,203.500000 
"/>
</svg>